<svg width="1508" height="1788" viewBox="0 0 1508 1788" fill="none" xmlns="http://www.w3.org/2000/svg">
<path fill-rule="evenodd" clip-rule="evenodd" d="M103.981 9.01097C100.524 17.814 82.9607 55.7336 54.4278 116.011C46.618 132.509 31.179 165.609 20.1128 189.562L0 233.121L20.7271 249.168C50.1916 271.977 111.582 334.482 127.025 357.387C145.664 385.032 158.999 412.409 170.908 447.473C180.063 474.418 181.256 484.257 181.135 531.963C180.939 611.642 170.001 651.502 105.418 807.932C20.0807 1014.64 2.39313 1080.65 1.98758 1193.89C1.71855 1269.45 6.87424 1301.58 28.3121 1357.87C47.3568 1407.88 66.5219 1438.7 98.2029 1470.26C157.851 1529.67 236.069 1550.62 336.581 1534.1C355.352 1531.01 375.385 1526.7 381.099 1524.52C390.723 1520.83 393.956 1523.03 425.267 1554.59C466.348 1595.99 511.906 1631.4 581.576 1676.08C610.522 1694.64 661.2 1727.42 694.19 1748.91L754.175 1788L814.16 1748.91C847.15 1727.42 897.827 1694.64 926.773 1676.08C996.098 1631.63 1041.83 1596.04 1083.02 1554.5C1114.35 1522.91 1117.48 1520.78 1127.19 1524.49C1144.86 1531.25 1204.35 1539.7 1234.75 1539.78C1342.63 1540.04 1428.11 1481.4 1472.99 1376.33C1500.96 1310.86 1512.67 1228.61 1505.14 1150.51C1495.18 1047.28 1478.09 989.975 1402.93 807.932C1338.4 651.618 1327.43 611.686 1327.17 531.963C1327.02 485.977 1328.37 473.818 1336.27 449.973C1347.15 417.14 1362.97 384.612 1381.28 357.439C1396.66 334.606 1458.01 272.125 1487.45 249.32L1508 233.397L1486.26 185.703C1474.3 159.47 1459.78 128.109 1453.99 116.011C1448.2 103.912 1433.86 73.3156 1422.13 48.0185L1400.8 2.02377L754.163 1.01189L107.518 0L103.981 9.01097ZM766.237 86.0582L774.906 112.011H805.053H835.204L813.762 128.645C801.969 137.796 791.726 145.735 791.003 146.291C790.277 146.847 794.344 160.166 800.038 175.888C805.731 191.614 810.389 205.341 810.389 206.4C810.389 207.456 798.652 200.149 784.31 190.162C769.963 180.175 756.724 172.004 754.893 172.004C753.058 172.004 740.868 179.967 727.806 189.702C714.74 199.437 703.433 206.784 702.674 206.032C701.919 205.277 705.469 191.762 710.568 175.996C718.555 151.291 719.017 146.867 713.917 143.996C710.661 142.164 699.867 134.669 689.93 127.337L671.861 114.011L702.12 112.859L732.38 111.707L741.856 83.9864C747.068 68.7402 752.733 57.1295 754.448 58.1854C756.162 59.2412 761.467 71.7838 766.237 86.0582ZM601.383 214.999C601.532 218.535 610.402 219.999 631.707 219.999C648.27 219.999 661.822 221.415 661.822 223.147C661.822 224.874 652.788 233.009 641.746 241.22C630.703 249.432 621.669 258.475 621.669 261.314C621.669 264.154 626.054 277.616 631.41 291.231C636.767 304.849 639.927 315.928 638.437 315.86C636.943 315.788 624.066 307.753 609.816 298.002L583.909 280.276L570.666 290.135C563.382 295.554 551.1 304.701 543.37 310.465C527.18 322.531 527.253 322.635 535.717 299.494C550.847 258.107 551.549 261.65 524.253 241.864L499.603 223.998L527.51 223.938C542.856 223.902 557.408 222.555 559.841 220.939C562.27 219.323 568.43 205.437 573.525 190.082L582.784 162.165L591.984 186.083C597.039 199.237 601.271 212.252 601.383 214.999ZM941.373 210.504C943.622 219.427 945.557 219.999 973.444 219.999C989.77 219.999 1003.1 221.347 1003.08 222.999C1003.06 224.65 994.107 232.297 983.193 239.997C972.279 247.696 963.265 257.179 963.16 261.074C963.056 264.966 967.433 279.088 972.885 292.451C984.289 320.407 983.257 320.575 947.705 296.53L924.573 280.88L897.594 300.506C882.757 311.3 870.619 319.516 870.619 318.76C870.619 318.008 875.044 304.429 880.453 288.591L890.286 259.79L865.596 241.892L840.906 223.998H869.322C899.015 223.998 903.356 221.835 908.753 204.349C910.391 199.041 914.471 188.243 917.819 180.351L923.911 166.005L931.447 183.507C935.591 193.134 940.056 205.285 941.373 210.504ZM780.515 287.555C784.619 303.257 786.297 333.002 786.297 390.151C786.297 434.418 787.494 471.83 788.959 473.29C790.425 474.746 799.652 464.015 809.47 449.437C839.669 404.598 909.66 340.485 916.458 351.44C919.506 356.351 906.5 408.173 896.606 430.539C891.603 441.85 866.371 482.853 840.536 521.66C813.405 562.416 794.509 594.652 795.794 597.988C797.504 602.431 875.699 721.342 880.758 727.201C883.043 729.845 930.203 636.999 936.246 617.953C951.09 571.199 959.856 514.289 959.518 466.891C959.197 421.888 959.519 419.992 966.786 423.868C988.549 435.47 1011.06 478.957 1011.22 509.694C1011.25 516.441 1012.87 524.476 1014.83 527.548C1017.26 531.375 1020.5 523.196 1025.13 501.551C1028.84 484.181 1032.65 468.171 1033.59 465.971C1035.96 460.459 1031.91 515.437 1028.7 532.291L1026.1 545.962L1037.7 535.419C1049.74 524.476 1071.89 511.966 1079.22 511.966C1086.36 511.966 1083.86 563.964 1075.56 587.913C1067.41 611.43 1068.39 618.917 1077.91 605.947C1094.45 583.433 1094.64 584.429 1079.35 613.318C1070.22 630.564 1063.49 645.414 1064.39 646.318C1065.3 647.218 1079.01 643.183 1094.88 637.351C1110.74 631.52 1124.7 627.736 1125.92 628.944C1130.13 633.132 1118.86 666.076 1103.36 694.945C1088.72 722.19 1087.71 730.453 1100.42 718.942C1103.46 716.194 1112.05 708.543 1119.51 701.944L1133.06 689.945L1123.98 701.944C1118.98 708.543 1107.82 721.486 1099.16 730.705C1090.51 739.923 1083.43 749.194 1083.43 751.306C1083.43 753.414 1104.39 747.223 1130 737.54C1155.61 727.861 1178.27 719.942 1180.34 719.942C1192.44 719.942 1124.85 797.941 1101.53 810.887C1086.43 819.282 1099.91 821.662 1120.77 814.283C1153.98 802.544 1154.68 802.576 1135.63 814.927C1125.69 821.37 1109.43 829.421 1099.49 832.821C1080.48 839.32 1080.97 839.864 1112.62 847.387C1139.14 853.691 1161.73 864.881 1161.73 871.716C1161.73 877.824 1126.81 892.926 1101.96 897.57C1077.59 902.125 1089.78 907.888 1124.83 908.38C1153.13 908.776 1155.47 909.3 1141.65 912.148C1132.82 913.968 1114.3 915.563 1100.5 915.687C1086.7 915.815 1075.4 917.039 1075.4 918.411C1075.4 919.779 1086.24 932.442 1099.49 946.552C1131.52 980.652 1131.1 983.912 1094.67 983.912C1061.6 983.912 1061.86 988.299 1095.51 997.818L1117.56 1004.05L1090.64 1001.89L1063.71 999.722L1074.08 1022.82C1079.79 1035.51 1087.78 1049.39 1091.83 1053.65C1098.96 1061.14 1099.48 1061.15 1107.24 1054.16C1111.65 1050.18 1118.34 1038.89 1122.11 1029.07C1127.96 1013.81 1128.13 1010.69 1123.26 1007.62C1118.57 1004.67 1118.74 1004.02 1124.26 1003.97C1127.93 1003.94 1131.66 1001.78 1132.53 999.178C1133.73 995.582 1138.63 995.706 1152.94 999.698C1163.3 1002.59 1171.77 1006.29 1171.77 1007.94C1171.77 1021.63 1140.87 1072.44 1124.83 1085.14C1116.7 1091.57 1116.28 1093.36 1121.05 1101.14C1124 1105.95 1139.96 1131.49 1156.52 1157.89C1173.08 1184.29 1192.51 1215.34 1199.7 1226.88C1206.88 1238.43 1214.12 1247.88 1215.79 1247.88C1222.55 1247.88 1256.09 1281.06 1256.09 1287.75C1256.09 1298.67 1226.6 1323.02 1209.51 1326.21C1190.84 1329.7 1186.45 1324.52 1178.43 1289.52C1174.65 1272.98 1168 1258.29 1159.41 1247.49C1152.15 1238.36 1139.76 1221.38 1131.88 1209.76C1124.01 1198.14 1107.8 1174.52 1095.88 1157.26C1083.95 1140.01 1074 1125.58 1073.75 1125.19C1073.51 1124.8 1062.49 1128.16 1049.27 1132.66C1028.14 1139.83 1019.38 1140.51 977.427 1138.22C942.586 1136.31 924.429 1133.37 910.379 1127.35C883.994 1116.04 878.666 1119.08 894.125 1136.62C901.071 1144.5 906.757 1152.06 906.757 1153.42C906.757 1154.78 899.08 1155.88 889.692 1155.88C871.808 1155.86 848.017 1144.42 843.953 1133.87C842.689 1130.58 840.038 1127.9 838.067 1127.9C832.55 1127.9 833.799 1138.98 840.846 1152.55C847.692 1165.73 844.259 1173.84 833.558 1169.75C830.105 1168.43 823.029 1159.38 817.838 1149.62C808.586 1132.25 799.07 1127.6 787.827 1134.95C784.9 1136.87 782.322 1167.89 780.439 1223.94C777.717 1304.92 778.042 1311.46 785.936 1334.81C790.554 1348.45 794.328 1362.33 794.328 1365.65C794.328 1381.55 755.146 1390.21 730.051 1379.85C715.788 1373.97 714.403 1362.37 724.734 1335.38C730.4 1320.56 731.263 1304.04 730.348 1227.88C729.749 1178.39 728.995 1137.7 728.669 1137.46C728.344 1137.22 723.14 1135.84 717.109 1134.4C707.497 1132.1 705.465 1133.39 700.598 1144.84C693.451 1161.66 679.1 1174.7 673.679 1169.3C671.009 1166.64 671.8 1160.22 676.057 1150.07C683.204 1133.04 678.116 1120.51 670.106 1135.42C667.628 1140.04 660.321 1146.53 653.872 1149.85C641.85 1156.04 609.494 1158.28 609.788 1152.89C609.876 1151.24 615.22 1143.75 621.665 1136.24C628.11 1128.74 632.51 1121.19 631.446 1119.47C630.378 1117.76 620.067 1120.73 608.523 1126.08C595.268 1132.23 580.223 1135.83 567.675 1135.85L547.807 1135.89L564.663 1119.27C573.931 1110.13 581.516 1101.21 581.516 1099.46C581.516 1097.7 572.027 1100.63 560.435 1105.96C542.551 1114.19 539.162 1117.5 538.098 1127.78L536.837 1139.89L505.975 1139.72C488.489 1139.62 468.147 1136.91 459.048 1133.45C450.214 1130.11 440.277 1126.63 436.964 1125.73C433.017 1124.66 424.717 1133.83 412.872 1152.38C402.934 1167.93 392.896 1182.74 390.567 1185.27C388.238 1187.81 378.4 1201.59 368.703 1215.89C359.006 1230.18 348.466 1244.51 345.278 1247.72C337.817 1255.24 330.819 1272.56 324.691 1298.68C318.142 1326.61 313.195 1330.23 290.32 1323.85C273.773 1319.23 248.244 1297.65 248.244 1288.28C248.244 1281.92 264.526 1264.4 278.314 1255.91C289.758 1248.86 316.504 1216.44 316.504 1209.61C316.504 1208.58 332.762 1182.32 352.63 1151.25L388.756 1094.77L372.96 1077.7C358.111 1061.65 340.933 1032.57 334.983 1013.41C332.678 1005.99 334.617 1004.35 350.293 1000.41C360.167 997.938 369.081 995.91 370.109 995.91C371.133 995.91 375.007 1005.53 378.722 1017.28C386.668 1042.45 401.103 1062.19 409.282 1059.06C415.157 1056.82 419.345 1049.83 431.551 1021.91C435.402 1013.11 439.22 1004.63 440.048 1003.07C440.871 1001.5 431.933 1001.04 420.18 1002.05L398.818 1003.87L420.903 997.61C454.374 988.123 454.619 983.912 421.706 983.912C400.987 983.912 392.795 982.472 392.795 978.824C392.795 972.641 414.394 945.488 429.776 932.338C435.936 927.07 440.979 921.219 440.979 919.339C440.979 917.459 429.688 915.815 415.883 915.687C402.083 915.563 383.56 913.968 374.726 912.148C360.58 909.236 362.351 908.784 389.547 908.38C420.931 907.912 434.414 902.085 414.04 897.797C393.715 893.518 348.627 875.292 348.627 871.352C348.627 866.253 387.575 849.231 407.339 845.691C433.093 841.076 435.546 837.532 416.337 832.689C400.975 828.813 360.673 806.932 360.673 802.468C360.673 801.564 371.064 805.08 383.761 810.284C422.601 826.194 422.838 822.278 385.287 784.934C352.694 752.518 328.141 719.942 336.308 719.942C338.219 719.942 360.291 727.853 385.359 737.524C410.431 747.195 431.648 754.438 432.511 753.622C433.374 752.81 427.05 743.859 418.457 733.74C384.648 693.921 381.348 688.621 401.774 706.943C424.89 727.681 432.599 728.793 420.742 709.687C405.97 685.878 393.558 658.077 390.539 642.027C387.676 626.836 387.692 626.812 399.268 629.632C405.644 631.184 420.348 636.739 431.945 641.979C443.537 647.222 453.025 649.97 453.025 648.086C453.025 646.206 445.798 631.964 436.964 616.434C418.481 583.949 416.092 575.318 431.583 597.004C446.577 617.993 454.318 617.833 443.429 596.756C438.14 586.517 428.933 537.899 428.933 520.197C428.933 515.429 431.551 511.966 435.157 511.966C444.256 511.966 465.356 523.32 478.739 535.419C487.316 543.174 489.729 544.082 487.858 538.854C486.461 534.947 484.381 516.949 483.24 498.859L481.161 465.971L488.489 496.947C492.52 513.985 496.76 528.864 497.913 530.011C499.065 531.163 502.133 519.293 504.731 503.635C507.324 487.98 512.312 469.502 515.809 462.571C522.49 449.337 548.859 419.976 554.063 419.976C555.733 419.976 556.882 441.122 556.617 466.971C555.89 537.551 574.308 620.405 601.737 669.948C622.6 707.627 627.696 715.89 630.073 715.918C633.839 715.958 710.006 600.583 710.006 594.84C710.006 592 694.326 566.343 675.161 537.823C655.992 509.302 632.466 472.806 622.878 456.72C604.865 426.495 588.073 375.489 590.289 357.727L591.554 347.596L617.654 365.838C645.765 385.488 671.198 413.549 701.16 457.972L720.044 485.969L722.498 391.979C725.068 293.674 728.023 275.293 747.244 237.997L755.492 221.999L765.112 243.72C770.405 255.667 777.335 275.393 780.515 287.555ZM684.91 755.338C665.589 784.238 649.776 809.628 649.776 811.767C649.776 813.903 644.344 821.814 637.706 829.345C631.069 836.876 619.38 853.391 611.731 866.037L597.826 889.039L606.33 900.933C611.811 908.6 614.983 919.423 615.248 931.374C615.602 947.244 617.814 952.003 630.587 964.39C640.292 973.801 647.287 985.487 650.595 997.806C655.036 1014.35 657.887 1017.78 673.037 1024.88C694.503 1034.93 709.171 1055.71 712.512 1080.8C714.13 1092.93 717.037 1099.9 720.486 1099.9C727.541 1099.9 731.91 1082.28 727.69 1070.84C725.875 1065.92 723.413 981.104 722.217 882.351L720.044 702.796L684.91 755.338ZM788.486 715.65C787.016 718.018 785.896 795.993 785.988 888.93C786.085 981.864 785.743 1066.9 785.225 1077.9C784.398 1095.54 785.237 1097.9 792.32 1097.9C798.705 1097.9 800.809 1094.49 802.579 1081.28C805.828 1057.02 823.531 1032.74 844.813 1023.37C857.26 1017.88 862.589 1013.14 862.589 1007.56C862.589 994.87 877.658 968.881 890.511 959.419C900.22 952.267 901.895 948.704 899.999 939.253C898.67 932.642 900.586 920.227 904.505 910L911.318 892.234L851.237 801.788C818.195 752.046 789.955 713.283 788.486 715.65ZM395.722 1006.33C394.389 1007.65 390.924 1007.8 388.029 1006.64C384.825 1005.37 385.776 1004.42 390.454 1004.23C394.687 1004.05 397.056 1005 395.722 1006.33ZM1003.12 1046.76C1003.12 1049.7 1022.99 1066.69 1034.24 1073.39C1042.78 1078.47 1039.8 1072.73 1028.22 1061.81C1015.25 1049.59 1003.12 1042.32 1003.12 1046.76ZM474.423 1065.97C464.862 1075.91 457.041 1086.64 457.041 1089.83C457.041 1099.32 471.869 1104.37 496.009 1103.09L518.704 1101.9L523.84 1079.9C526.666 1067.8 529.051 1056.67 529.148 1055.16C529.24 1053.66 517.15 1059.5 502.277 1068.16C467.689 1088.29 462.943 1088.17 488.802 1067.81C500.045 1058.96 509.24 1050.86 509.24 1049.81C509.24 1048.76 505.317 1047.9 500.522 1047.9C495.423 1047.9 484.582 1055.41 474.423 1065.97ZM987.124 1059.2C987.16 1062.88 989.605 1074 992.565 1083.9C997.704 1101.09 998.684 1101.95 1014.44 1103.12C1032.66 1104.47 1047.29 1098.64 1047.29 1090.03C1047.29 1086.96 1043.98 1083.39 1039.94 1082.11C1035.89 1080.83 1022.34 1073.65 1009.82 1066.14C991.336 1055.05 987.076 1053.75 987.124 1059.2ZM934.864 1099.82C934.864 1106.11 963.132 1132.27 967.216 1129.76C976.423 1124.08 970.135 1113.07 952.933 1104.75C942.995 1099.94 934.864 1097.72 934.864 1099.82Z" fill="black"/>
</svg>
