<svg width="1508" height="1788" viewBox="0 0 1508 1788" fill="none" xmlns="http://www.w3.org/2000/svg">
<path fill-rule="evenodd" clip-rule="evenodd" d="M775.052 37.6673L788.023 72.6565H833.131H878.245L846.162 95.0821C828.517 107.419 813.19 118.122 812.109 118.872C811.022 119.621 817.108 137.577 825.627 158.773C834.146 179.975 841.115 198.481 841.115 199.909C841.115 201.333 823.554 191.482 802.094 178.018C780.627 164.554 760.819 153.538 758.079 153.538C755.334 153.538 737.093 164.273 717.55 177.398C698 190.522 681.081 200.427 679.946 199.413C678.816 198.394 684.127 180.174 691.757 158.919C703.707 125.612 704.398 119.648 696.768 115.777C691.896 113.307 675.746 103.203 660.876 93.3189L633.841 75.3525L679.117 73.7996L724.393 72.2467L738.572 34.8742C746.37 14.3196 754.847 -1.33361 757.412 0.0898992C759.978 1.51341 767.914 18.423 775.052 37.6673ZM528.389 211.502C528.611 216.269 541.883 218.243 573.761 218.243C598.544 218.243 618.821 220.151 618.821 222.486C618.821 224.815 605.303 235.783 588.781 246.853C572.259 257.923 558.741 270.114 558.741 273.943C558.741 277.771 565.302 295.921 573.316 314.275C581.331 332.635 586.059 347.571 583.83 347.48C581.595 347.383 562.328 336.55 541.005 323.404L502.242 299.506L482.428 312.798C471.529 320.104 453.151 332.436 441.586 340.206C417.362 356.474 417.47 356.614 430.134 325.415C452.772 269.618 453.824 274.396 412.982 247.721L376.099 223.635L417.854 223.554C440.817 223.505 462.59 221.688 466.23 219.51C469.865 217.331 479.081 198.61 486.705 177.91L500.56 140.273L514.324 172.518C521.888 190.252 528.221 207.798 528.389 211.502ZM1037.1 205.442C1040.47 217.471 1043.36 218.243 1085.09 218.243C1109.52 218.243 1129.47 220.06 1129.43 222.287C1129.4 224.513 1116 234.823 1099.67 245.203C1083.34 255.583 1069.86 268.367 1069.7 273.619C1069.54 278.866 1076.09 297.905 1084.25 315.92C1101.31 353.611 1099.77 353.837 1046.58 321.42L1011.96 300.321L971.596 326.78C949.397 341.333 931.235 352.408 931.235 351.389C931.235 350.375 937.856 332.069 945.949 310.717L960.662 271.888L923.719 247.759L886.776 223.635H929.294C973.723 223.635 980.218 220.717 988.293 197.143C990.744 189.988 996.848 175.429 1001.86 164.791L1010.97 145.449L1022.25 169.045C1028.45 182.024 1035.13 198.405 1037.1 205.442ZM796.416 309.32C802.556 330.489 805.068 370.59 805.068 447.638C805.068 507.317 806.858 557.755 809.051 559.723C811.244 561.685 825.05 547.218 839.74 527.564C884.926 467.114 989.65 380.679 999.822 395.448C1004.38 402.069 984.922 471.934 970.118 502.087C962.633 517.336 924.878 572.615 886.223 624.934C845.627 679.88 817.354 723.34 819.277 727.837C821.836 733.827 938.835 894.139 946.405 902.039C949.824 905.603 1020.39 780.431 1029.43 754.754C1051.64 691.721 1064.76 614.997 1064.25 551.095C1063.77 490.424 1064.25 487.868 1075.13 493.093C1107.69 508.735 1141.38 567.363 1141.6 608.801C1141.66 617.898 1144.09 628.73 1147.01 632.872C1150.65 638.032 1155.49 627.005 1162.42 597.823C1167.97 574.405 1173.67 552.821 1175.09 549.855C1178.63 542.425 1172.56 616.544 1167.77 639.267L1163.88 657.697L1181.23 643.483C1199.25 628.73 1232.38 611.864 1243.35 611.864C1254.04 611.864 1250.3 681.966 1237.88 714.254C1225.69 745.96 1227.15 756.054 1241.4 738.567C1266.14 708.215 1266.43 709.558 1243.55 748.505C1229.89 771.755 1219.82 791.776 1221.17 792.995C1222.53 794.208 1243.05 788.767 1266.78 780.906C1290.51 773.044 1311.41 767.943 1313.23 769.572C1319.52 775.217 1302.67 819.632 1279.47 858.552C1257.57 895.282 1256.06 906.422 1275.08 890.904C1279.63 887.2 1292.48 876.885 1303.63 867.988L1323.92 851.812L1310.33 867.988C1302.85 876.885 1286.14 894.333 1273.2 906.762C1260.25 919.191 1249.66 931.69 1249.66 934.537C1249.66 937.378 1281.01 929.031 1319.33 915.977C1357.66 902.928 1391.55 892.252 1394.66 892.252C1412.76 892.252 1311.63 997.408 1276.74 1014.86C1254.14 1026.18 1274.31 1029.39 1305.53 1019.44C1355.22 1003.61 1356.26 1003.66 1327.76 1020.31C1312.89 1029 1288.56 1039.85 1273.69 1044.43C1245.24 1053.19 1245.97 1053.93 1293.34 1064.07C1333.02 1072.57 1366.81 1087.66 1366.81 1096.87C1366.81 1105.1 1314.57 1125.46 1277.38 1131.72C1240.91 1137.87 1259.16 1145.64 1311.59 1146.3C1353.94 1146.83 1357.45 1147.54 1336.77 1151.38C1323.56 1153.83 1295.85 1155.98 1275.19 1156.15C1254.54 1156.32 1237.64 1157.97 1237.64 1159.82C1237.64 1161.67 1253.86 1178.74 1273.69 1197.76C1321.61 1243.73 1320.98 1248.13 1266.48 1248.13C1216.99 1248.13 1217.38 1254.04 1267.74 1266.88L1300.73 1275.28L1260.44 1272.37L1220.15 1269.44L1235.67 1300.58C1244.21 1317.7 1256.16 1336.41 1262.23 1342.15C1272.89 1352.24 1273.67 1352.27 1285.28 1342.84C1291.88 1337.47 1301.9 1322.25 1307.53 1309.01C1316.29 1288.44 1316.54 1284.23 1309.25 1280.1C1302.23 1276.11 1302.49 1275.24 1310.74 1275.17C1316.24 1275.13 1321.82 1272.22 1323.12 1268.71C1324.92 1263.86 1332.24 1264.03 1353.66 1269.41C1369.16 1273.3 1381.83 1278.3 1381.83 1280.52C1381.83 1298.98 1335.61 1367.48 1311.59 1384.6C1299.44 1393.27 1298.81 1395.68 1305.94 1406.17C1310.36 1412.66 1334.24 1447.1 1359.02 1482.68C1383.8 1518.27 1412.86 1560.13 1423.62 1575.7C1434.37 1591.26 1445.2 1604.01 1447.7 1604.01C1457.82 1604.01 1508 1648.74 1508 1657.76C1508 1672.47 1463.88 1705.3 1438.31 1709.61C1410.37 1714.31 1403.8 1707.32 1391.81 1660.14C1386.14 1637.85 1376.19 1618.04 1363.34 1603.48C1352.48 1591.17 1333.94 1568.28 1322.16 1552.61C1310.37 1536.95 1286.13 1505.1 1268.28 1481.84C1250.43 1458.58 1235.54 1439.12 1235.18 1438.6C1234.82 1438.08 1218.33 1442.61 1198.54 1448.67C1166.93 1458.34 1153.82 1459.26 1091.05 1456.16C1038.92 1453.59 1011.75 1449.62 990.726 1441.51C951.247 1426.26 943.275 1430.36 966.406 1454C976.799 1464.63 985.307 1474.82 985.307 1476.66C985.307 1478.49 973.819 1479.98 959.773 1479.97C933.013 1479.95 897.416 1464.52 891.336 1450.3C889.444 1445.87 885.478 1442.24 882.528 1442.24C874.273 1442.24 876.142 1457.19 886.686 1475.49C896.93 1493.26 891.793 1504.19 875.781 1498.67C870.615 1496.89 860.028 1484.68 852.26 1471.54C838.418 1448.12 824.179 1441.85 807.357 1451.76C802.977 1454.34 799.12 1496.17 796.302 1571.73C792.229 1680.91 792.715 1689.72 804.527 1721.2C811.436 1739.59 817.083 1758.31 817.083 1762.78C817.083 1784.21 758.458 1795.89 720.908 1781.93C699.568 1773.99 697.495 1758.36 712.953 1721.96C721.431 1701.99 722.722 1679.72 721.353 1577.05C720.457 1510.32 719.328 1455.46 718.841 1455.14C718.355 1454.81 710.568 1452.96 701.544 1451.01C687.161 1447.92 684.121 1449.65 676.84 1465.08C666.145 1487.76 644.673 1505.35 636.562 1498.07C632.567 1494.48 633.75 1485.83 640.119 1472.14C650.813 1449.18 643.201 1432.29 631.215 1452.39C627.508 1458.61 616.574 1467.37 606.925 1471.85C588.937 1480.19 540.525 1483.2 540.963 1475.94C541.096 1473.72 549.092 1463.62 558.735 1453.5C568.378 1443.38 574.962 1433.21 573.37 1430.89C571.772 1428.58 556.344 1432.59 539.071 1439.8C519.239 1448.09 496.727 1452.94 477.952 1452.97L448.224 1453.03L473.446 1430.62C487.312 1418.3 498.661 1406.27 498.661 1403.91C498.661 1401.54 484.464 1405.49 467.119 1412.67C440.36 1423.77 435.289 1428.22 433.697 1442.08L431.811 1458.42L385.633 1458.18C359.469 1458.05 329.032 1454.39 315.418 1449.74C302.201 1445.23 287.331 1440.54 282.374 1439.33C276.469 1437.88 264.05 1450.25 246.327 1475.25C231.457 1496.22 216.437 1516.18 212.952 1519.6C209.468 1523.02 194.748 1541.59 180.239 1560.87C165.73 1580.15 149.959 1599.46 145.189 1603.79C134.026 1613.93 123.554 1637.28 114.386 1672.49C104.587 1710.14 97.1849 1715.02 62.9575 1706.42C38.1986 1700.2 0 1671.11 0 1658.47C0 1649.9 24.3622 1626.27 44.9936 1614.83C62.1163 1605.33 102.135 1561.62 102.135 1552.41C102.135 1551.02 126.462 1515.62 156.189 1473.73L210.243 1397.58L186.607 1374.57C164.39 1352.93 138.688 1313.73 129.784 1287.9C126.336 1277.89 129.237 1275.68 152.692 1270.38C167.466 1267.04 180.804 1264.31 182.342 1264.31C183.874 1264.31 189.672 1277.27 195.229 1293.12C207.119 1327.05 228.717 1353.66 240.956 1349.44C249.745 1346.42 256.011 1337 274.276 1299.35C280.037 1287.49 285.751 1276.06 286.989 1273.95C288.22 1271.84 274.846 1271.22 257.261 1272.58L225.299 1275.04L258.343 1266.6C308.425 1253.81 308.791 1248.13 259.544 1248.13C228.543 1248.13 216.287 1246.19 216.287 1241.27C216.287 1232.93 248.604 1196.33 271.62 1178.6C280.836 1171.5 288.382 1163.61 288.382 1161.07C288.382 1158.54 271.488 1156.32 250.833 1156.15C230.183 1155.98 202.469 1153.83 189.251 1151.38C168.085 1147.45 170.734 1146.84 211.426 1146.3C258.385 1145.67 278.559 1137.81 248.075 1132.03C217.663 1126.26 150.199 1101.69 150.199 1096.38C150.199 1089.5 208.476 1066.56 238.048 1061.78C276.583 1055.56 280.254 1050.78 251.512 1044.25C228.525 1039.03 168.223 1009.53 168.223 1003.51C168.223 1002.29 183.772 1007.03 202.769 1014.05C260.884 1035.5 261.238 1030.22 205.052 979.873C156.285 936.171 119.547 892.252 131.767 892.252C134.627 892.252 167.652 902.918 205.16 915.956C242.674 928.994 274.42 938.759 275.712 937.659C277.003 936.564 267.541 924.497 254.684 910.855C204.097 857.171 199.158 850.027 229.721 874.728C264.309 902.686 275.844 904.185 258.102 878.427C235.999 846.328 217.428 808.847 212.91 787.209C208.627 766.73 208.651 766.698 225.972 770.499C235.512 772.591 257.513 780.081 274.864 787.144C292.209 794.213 306.406 797.918 306.406 795.378C306.406 792.844 295.592 773.643 282.374 752.705C254.72 708.911 251.145 697.274 274.324 726.51C296.758 754.808 308.341 754.592 292.047 726.176C284.135 712.372 270.359 646.826 270.359 622.961C270.359 616.534 274.276 611.864 279.671 611.864C293.285 611.864 324.857 627.172 344.881 643.483C357.714 653.938 361.325 655.162 358.525 648.115C356.435 642.847 353.322 618.583 351.616 594.194L348.504 549.855L359.469 591.617C365.501 614.587 371.845 634.646 373.569 636.193C375.294 637.746 379.884 621.742 383.771 600.632C387.652 579.528 395.114 554.616 400.347 545.272C410.344 527.43 449.799 487.846 457.585 487.846C460.084 487.846 461.802 516.354 461.406 551.203C460.319 646.357 487.877 758.059 528.917 824.851C560.135 875.65 567.759 886.79 571.316 886.828C576.951 886.882 690.916 731.336 690.916 723.593C690.916 719.765 667.455 685.175 638.779 646.724C610.097 608.273 574.896 559.07 560.549 537.383C533.598 496.635 508.472 427.87 511.789 403.924L513.681 390.266L552.733 414.859C594.795 441.35 632.849 479.181 677.681 539.071L705.936 576.816L709.607 450.102C713.452 317.57 717.874 292.788 746.634 242.507L758.975 220.939L773.37 250.223C781.288 266.329 791.658 292.923 796.416 309.32ZM653.367 939.972C624.456 978.935 600.797 1013.16 600.797 1016.05C600.797 1018.93 592.668 1029.59 582.737 1039.75C572.806 1049.9 555.316 1072.16 543.871 1089.21L523.066 1120.22L535.791 1136.26C543.991 1146.6 548.738 1161.19 549.134 1177.3C549.663 1198.69 552.973 1205.11 572.085 1221.81C586.606 1234.5 597.072 1250.25 602.022 1266.86C608.667 1289.16 612.933 1293.79 635.601 1303.36C667.72 1316.91 689.667 1344.92 694.665 1378.75C697.086 1395.11 701.436 1404.5 706.597 1404.5C717.153 1404.5 723.69 1380.74 717.375 1365.32C714.66 1358.69 710.977 1244.34 709.187 1111.21L705.936 869.136L653.367 939.972ZM808.342 886.466C806.143 889.658 804.467 994.782 804.605 1120.08C804.749 1245.37 804.239 1360.01 803.464 1374.84C802.226 1398.63 803.482 1401.8 814.08 1401.8C823.632 1401.8 826.78 1397.21 829.43 1379.39C834.29 1346.69 860.779 1313.96 892.622 1301.32C911.246 1293.92 919.219 1287.54 919.219 1280.01C919.219 1262.9 941.767 1227.87 960.998 1215.11C975.526 1205.47 978.031 1200.66 975.195 1187.92C973.207 1179.01 976.072 1162.27 981.936 1148.48L992.132 1124.53L902.235 1002.6C852.795 935.534 810.541 883.274 808.342 886.466ZM220.667 1278.35C218.672 1280.14 213.487 1280.33 209.155 1278.77C204.361 1277.05 205.785 1275.77 212.784 1275.52C219.117 1275.28 222.661 1276.56 220.667 1278.35ZM1129.5 1332.87C1129.5 1336.82 1159.22 1359.73 1176.06 1368.76C1188.84 1375.61 1184.37 1367.87 1167.05 1353.16C1147.64 1336.67 1129.5 1326.87 1129.5 1332.87ZM338.423 1358.76C324.118 1372.16 312.414 1386.63 312.414 1390.92C312.414 1403.72 334.602 1410.52 370.722 1408.81L404.679 1407.2L412.363 1377.54C416.593 1361.23 420.161 1346.22 420.305 1344.19C420.444 1342.16 402.354 1350.04 380.1 1361.71C328.347 1388.85 321.246 1388.68 359.937 1361.24C376.76 1349.31 390.518 1338.39 390.518 1336.97C390.518 1335.56 384.648 1334.4 377.475 1334.4C369.844 1334.4 353.623 1344.52 338.423 1358.76ZM1105.56 1349.62C1105.61 1354.6 1109.27 1369.59 1113.7 1382.93C1121.39 1406.11 1122.85 1407.27 1146.42 1408.85C1173.69 1410.66 1195.59 1402.81 1195.59 1391.19C1195.59 1387.05 1190.63 1382.25 1184.58 1380.52C1178.52 1378.8 1158.25 1369.11 1139.52 1358.98C1111.86 1344.04 1105.48 1342.28 1105.56 1349.62ZM1027.36 1404.39C1027.36 1412.88 1069.66 1448.14 1075.77 1444.75C1089.54 1437.11 1080.14 1422.26 1054.4 1411.03C1039.53 1404.55 1027.36 1401.56 1027.36 1404.39Z" fill="white"/>
</svg>
