<svg width="1508" height="1788" viewBox="0 0 1508 1788" fill="none" xmlns="http://www.w3.org/2000/svg">
<path fill-rule="evenodd" clip-rule="evenodd" d="M103.981 9.01097C100.524 17.814 82.9607 55.7336 54.4278 116.011C46.618 132.509 31.179 165.609 20.1128 189.562L0 233.121L20.7271 249.168C50.1916 271.977 111.582 334.482 127.025 357.387C145.664 385.032 158.999 412.409 170.908 447.473C180.063 474.418 181.256 484.257 181.135 531.963C180.939 611.642 170.001 651.502 105.418 807.932C20.0807 1014.64 2.39313 1080.65 1.98758 1193.89C1.71855 1269.45 6.87424 1301.58 28.3121 1357.87C47.3568 1407.88 66.5219 1438.7 98.2029 1470.26C157.851 1529.67 236.069 1550.62 336.581 1534.1C355.352 1531.01 375.385 1526.7 381.099 1524.52C390.723 1520.83 393.956 1523.03 425.267 1554.59C466.348 1595.99 511.906 1631.4 581.576 1676.08C610.522 1694.64 661.2 1727.42 694.19 1748.91L754.175 1788L814.16 1748.91C847.15 1727.42 897.827 1694.64 926.773 1676.08C996.098 1631.63 1041.83 1596.04 1083.02 1554.5C1114.35 1522.91 1117.48 1520.78 1127.19 1524.49C1144.86 1531.25 1204.35 1539.7 1234.75 1539.78C1342.63 1540.04 1428.11 1481.4 1472.99 1376.33C1500.96 1310.86 1512.67 1228.61 1505.14 1150.51C1495.18 1047.28 1478.09 989.975 1402.93 807.932C1338.4 651.618 1327.43 611.686 1327.17 531.963C1327.02 485.977 1328.37 473.818 1336.27 449.973C1347.15 417.14 1362.97 384.612 1381.28 357.439C1396.66 334.606 1458.01 272.125 1487.45 249.32L1508 233.397L1486.26 185.703C1474.3 159.47 1459.78 128.109 1453.99 116.011C1448.2 103.912 1433.86 73.3156 1422.13 48.0185L1400.8 2.02377L754.163 1.01189L107.518 0L103.981 9.01097Z" fill="white"/>
<g clip-path="url(#clip0)">
<path d="M386.32 436.648V612.09L538.253 524.365L386.32 436.648Z" fill="#686A79"/>
<path d="M386.32 655.973V831.377L538.253 743.66L386.32 655.973Z" fill="#686A79"/>
<path d="M386.32 875.27V1050.68L538.253 962.986L386.32 875.27Z" fill="#686A79"/>
<path d="M550.921 1160.35V984.896L398.984 1072.63L550.921 1160.35Z" fill="#686A79"/>
<path d="M550.921 941.026V765.621L398.984 853.338L550.921 941.026Z" fill="#686A79"/>
<path d="M550.921 721.729V546.32L398.984 634.012L550.921 721.729Z" fill="#686A79"/>
<path d="M550.921 502.442V327L398.984 414.713L550.921 502.442Z" fill="#686A79"/>
<path d="M576.242 327V502.442L728.179 414.713L576.242 327Z" fill="#686A79"/>
<path d="M576.242 546.32V721.729L728.179 634.012L576.242 546.32Z" fill="#686A79"/>
<path d="M576.242 765.621V941.026L728.179 853.338L576.242 765.621Z" fill="#686A79"/>
<path d="M576.242 984.896V1160.35L728.179 1072.63L576.242 984.896Z" fill="#686A79"/>
<path d="M740.835 1270V1094.54L588.898 1182.29L740.835 1270Z" fill="#686A79"/>
<path d="M740.835 1050.68V875.27L588.898 962.986L740.835 1050.68Z" fill="#686A79"/>
<path d="M740.835 831.377V655.973L588.898 743.66L740.835 831.377Z" fill="#686A79"/>
<path d="M740.835 612.09V436.648L588.898 524.365L740.835 612.09Z" fill="#686A79"/>
<path d="M766.16 436.648V612.09L918.097 524.365L766.16 436.648Z" fill="black"/>
<path d="M766.16 655.973V831.377L918.097 743.66L766.16 655.973Z" fill="black"/>
<path d="M766.16 875.27V1050.68L918.097 962.986L766.16 875.27Z" fill="black"/>
<path d="M766.16 1270L918.097 1182.29L766.16 1094.54V1270Z" fill="black"/>
<path d="M930.757 1160.35V984.896L778.82 1072.63L930.757 1160.35Z" fill="black"/>
<path d="M930.757 941.026V765.621L778.82 853.338L930.757 941.026Z" fill="black"/>
<path d="M930.757 721.729V546.32L778.82 634.012L930.757 721.729Z" fill="black"/>
<path d="M930.757 502.442V327L778.82 414.713L930.757 502.442Z" fill="black"/>
<path d="M956.082 327V502.442L1108.02 414.713L956.082 327Z" fill="black"/>
<path d="M956.082 546.32V721.729L1108.02 634.012L956.082 546.32Z" fill="black"/>
<path d="M956.082 765.621V941.026L1108.02 853.338L956.082 765.621Z" fill="black"/>
<path d="M956.082 1160.35L1108.02 1072.63L956.082 984.896V1160.35Z" fill="black"/>
<path d="M1120.68 1050.68V875.27L968.746 962.986L1120.68 1050.68Z" fill="black"/>
<path d="M1120.68 831.377V655.973L968.746 743.66L1120.68 831.377Z" fill="black"/>
<path d="M968.746 524.365L1120.68 612.09V436.648L968.746 524.365Z" fill="black"/>
</g>
<defs>
<clipPath id="clip0">
<rect width="943" height="943" fill="white" transform="translate(282 327)"/>
</clipPath>
</defs>
</svg>
